<svg xmlns="http://www.w3.org/2000/svg" viewBox="0 0 133 101">
  <path d="M51.944 25.819c10.024-.771 20.056-1.42 30.087-1.793 1.33-.05 2.641-.038 3.938.008a52.69 52.69 0 012.627.158c3.097.269 6.104.815 9.023 1.632C84.806 15.429 68.129 8.672 52.351 8.672c-8.679 0-15.987 2.053-21.564 5.621 4.653-2.107 10.248-3.284 16.628-3.284 10.629 0 21.69 3.251 31.554 8.675l-52.021 6.741 24.996-.606zM103.605 81.334c-5.523 5.407-13.971 8.647-24.58 8.647-6.381 0-12.917-1.177-19.258-3.284 8.434 3.568 17.385 5.621 26.063 5.621 11.163 0 20.065-3.387 25.911-9.046a38.53 38.53 0 01-6.102-1.269c-.676-.2-1.356-.426-2.034-.669zM123.76 75.799c-1.953.313-4.33.573-6.945.565-2.707-.008-5.668-.311-8.683-1.144-5.513-1.523-11.199-4.829-15.818-11.425L13.389 49.479l.092.248 76.302 17.789s4.905 7.972 16.017 11.358c2.527.771 5.377 1.299 8.563 1.446 2.945.136 6.171-.047 9.705-.687 7.363-1.496 9.434-8.897 9.434-8.897s-2.072 3.835-9.742 5.063z" fill="#059669"/>
  <path d="M133.5 65.392c-4.997-17.328-17.529-26.869-25.566-32.118a34.953 34.953 0 00-4.971-2.687c-5.076-2.247-9.799-2.967-12.736-3.334-.611-.076-1.152-.139-1.595-.196-6.765-.873-71.401 4.773-78.054 5.358.069-1.043.187-2.067.352-3.071C13.508 13.628 27.612 2.82 48.923 2.82c7.704 0 15.595 1.421 23.25 3.966C61.992 2.478 51.185 0 40.706 0 8.978 0-7.694 22.607 3.468 50.495 14.631 78.383 49.4 100.99 81.129 100.99c10.479 0 19.301-2.478 26.035-6.786-5.618 2.545-12.373 3.966-20.076 3.966-27.198 0-56.761-17.598-69.862-40.545a59.736 59.736 0 01-1.977-3.792L98.986 79.71c-5.982-2.761-10.432-9.05-10.432-9.05L14.998 53.317a55.925 55.925 0 01-1.232-2.822c-.103-.258-.188-.512-.286-.769l-.092-.248a49.618 49.618 0 01-1.36-4.118l3.663.662v-9.264h-5.127a35.016 35.016 0 01.011-4.3c5.782-.057 54.993-.495 59.649.695C75.172 34.42 96.686 67.898 107.5 70.89c.706.196 1.439.369 2.189.523 2.768.566 5.789.851 8.725.855 8.459.013 16.204-2.295 15.086-6.876zm-23.144 3.368c-6.87-1.847-11.37-7.457-11.37-7.457s4.985.077 11.121 1.534c.258.061.49.136.729.209 5.438 1.659 5.944 6.157 5.944 6.157-2.301.307-4.46.085-6.424-.443zm8.833-16.688l-2.37.275-.097.012-.514.06-7.086.823-8.637 1.005s-3.596.869-6.244-2.158c-1.768-2.019-6.37-7.279-9.238-10.558-1.432-1.636-.613-3.134 2.014-3.604 3.438-.617 8.26-1.432 12.203-1.906 3.3-.397 5.985-.558 6.727-.162.278.148.652.369 1.098.649.182.115.373.237.579.374.438.289.933.632 1.464 1.015 3.234 2.329 8.021 6.352 12.145 11.674 1.654 2.135-2.044 2.501-2.044 2.501zm8.897 16.176s.186-4.771 2.869-7.147c0 0 3.586 6.418-2.869 7.147z" fill="#1c1c1a"/>
  <path d="M27.426 48.144l8.284 1.498V36.759h-8.284v11.385zm-9.203-1.665l6.673 1.207V36.759h-6.673v9.72zm41.647-9.72h-7.478v15.898l20.67 3.737c.001.001-5.484-19.635-13.192-19.635zm-21.629 13.34l11.62 2.101V36.76h-11.62v13.339z" fill="#1c1c1a"/>
</svg>
